<svg width="30" height="30" viewBox="0 0 30 30" fill="none" xmlns="http://www.w3.org/2000/svg">
<path d="M10 20H6.25C5.89584 20 5.59875 19.88 5.35875 19.64C5.11875 19.4 4.99917 19.1033 5 18.75C5 18.3958 5.12 18.0988 5.36 17.8588C5.6 17.6188 5.89667 17.4992 6.25 17.5H10V12.5H6.25C5.89584 12.5 5.59875 12.38 5.35875 12.14C5.11875 11.9 4.99917 11.6033 5 11.25C5 10.8958 5.12 10.5988 5.36 10.3588C5.6 10.1188 5.89667 9.99917 6.25 10H10V6.25C10 5.89584 10.12 5.59875 10.36 5.35875C10.6 5.11875 10.8967 4.99917 11.25 5C11.6042 5 11.9013 5.12 12.1413 5.36C12.3813 5.6 12.5008 5.89667 12.5 6.25V10H17.5V6.25C17.5 5.89584 17.62 5.59875 17.86 5.35875C18.1 5.11875 18.3967 4.99917 18.75 5C19.1042 5 19.4013 5.12 19.6413 5.36C19.8813 5.6 20.0008 5.89667 20 6.25V10H23.75C24.1042 10 24.4013 10.12 24.6413 10.36C24.8813 10.6 25.0008 10.8967 25 11.25C25 11.6042 24.88 11.9013 24.64 12.1413C24.4 12.3813 24.1033 12.5008 23.75 12.5H20V17.5H23.75C24.1042 17.5 24.4013 17.62 24.6413 17.86C24.8813 18.1 25.0008 18.3967 25 18.75C25 19.1042 24.88 19.4013 24.64 19.6413C24.4 19.8813 24.1033 20.0008 23.75 20H20V23.75C20 24.1042 19.88 24.4013 19.64 24.6413C19.4 24.8813 19.1033 25.0008 18.75 25C18.3958 25 18.0988 24.88 17.8588 24.64C17.6188 24.4 17.4992 24.1033 17.5 23.75V20H12.5V23.75C12.5 24.1042 12.38 24.4013 12.14 24.6413C11.9 24.8813 11.6033 25.0008 11.25 25C10.8958 25 10.5988 24.88 10.3588 24.64C10.1188 24.4 9.99917 24.1033 10 23.75V20ZM12.5 17.5H17.5V12.5H12.5V17.5Z" fill="#A7A7A7"/>
</svg>
